STARTFONT 2.1
COMMENT
COMMENT Converted from OpenType font "KSET_SKORO.TTF" by "otf2bdf 3.0".
COMMENT
FONT -FreeType-Kset Regular4-Medium-R-Normal--55-400-100-100-P-208-ISO10646-1
SIZE 40 100 100
FONTBOUNDINGBOX 51 50 -3 -9
STARTPROPERTIES 19
FOUNDRY "FreeType"
FAMILY_NAME "Kset Regular4"
WEIGHT_NAME "Medium"
SLANT "R"
SETWIDTH_NAME "Normal"
ADD_STYLE_NAME ""
PIXEL_SIZE 55
POINT_SIZE 400
RESOLUTION_X 100
RESOLUTION_Y 100
SPACING "P"
AVERAGE_WIDTH 208
CHARSET_REGISTRY "ISO10646"
CHARSET_ENCODING "1"
FONT_ASCENT 42
FONT_DESCENT 14
COPYRIGHT "-FreeType-Kset Regular4-Medium-R-Normal--55-400-100-100-P-208-ISO10646-1"
_OTF_FONTFILE "KSET_SKORO.TTF"
_OTF_PSNAME "KsetRegular4"
ENDPROPERTIES
CHARS 92
STARTCHAR 0020
ENCODING 32
SWIDTH 216 0
DWIDTH 12 0
BBX 0 0 0 0
BITMAP
ENDCHAR
STARTCHAR 0021
ENCODING 33
SWIDTH 180 0
DWIDTH 10 0
BBX 8 29 1 0
BITMAP
3C
7E
FF
FF
FF
FF
FF
7E
7E
7E
7E
7E
7E
7E
7E
7E
7E
7E
7E
7E
18
00
00
3C
7E
7E
7E
7E
3C
ENDCHAR
STARTCHAR 0022
ENCODING 34
SWIDTH 288 0
DWIDTH 16 0
BBX 14 10 1 21
BITMAP
7878
FCFC
FCFC
FCFC
FCFC
FCFC
7878
7878
7878
3030
ENDCHAR
STARTCHAR 0027
ENCODING 39
SWIDTH 180 0
DWIDTH 10 0
BBX 6 10 2 21
BITMAP
78
FC
FC
FC
FC
FC
78
78
78
30
ENDCHAR
STARTCHAR 0028
ENCODING 40
SWIDTH 342 0
DWIDTH 19 0
BBX 11 38 2 -5
BITMAP
01C0
07E0
07E0
0FE0
1FE0
1FC0
3FC0
3F80
7F80
7F80
7F00
7F00
7F00
FE00
FE00
FE00
FE00
FE00
FE00
FE00
FE00
FE00
FE00
FE00
FE00
7F00
7F00
7F00
7F00
7F80
3F80
3FC0
1FC0
1FE0
0FE0
0FE0
07E0
03E0
ENDCHAR
STARTCHAR 0029
ENCODING 41
SWIDTH 306 0
DWIDTH 17 0
BBX 11 38 2 -5
BITMAP
7000
FC00
FC00
FE00
FF00
7F00
7F80
3F80
3F80
1FC0
1FC0
1FC0
1FC0
1FE0
0FE0
0FE0
0FE0
0FE0
0FE0
0FE0
0FE0
0FE0
0FE0
0FE0
1FE0
1FC0
1FC0
1FC0
1FC0
3FC0
3F80
7F80
7F00
FF00
FE00
FE00
FC00
F800
ENDCHAR
STARTCHAR 002A
ENCODING 42
SWIDTH 288 0
DWIDTH 16 0
BBX 13 13 1 19
BITMAP
0600
0F00
7F70
FFF8
FFF8
7FF0
3FE0
7FF0
FFF8
7FF0
2F20
0F00
0600
ENDCHAR
STARTCHAR 002B
ENCODING 43
SWIDTH 378 0
DWIDTH 21 0
BBX 18 17 2 7
BITMAP
03E000
07F000
07F000
07F000
07F000
3FFF00
7FFF80
FFFFC0
FFFFC0
FFFFC0
FFFFC0
7FFF80
3FFF00
07F000
07F000
07F000
03E000
ENDCHAR
STARTCHAR 002C
ENCODING 44
SWIDTH 180 0
DWIDTH 10 0
BBX 6 10 2 -4
BITMAP
78
F8
FC
FC
FC
7C
7C
78
F8
F0
ENDCHAR
STARTCHAR 002D
ENCODING 45
SWIDTH 432 0
DWIDTH 24 0
BBX 15 7 3 10
BITMAP
3FFC
7FFE
7FFE
FFFE
7FFE
7FFE
3FFC
ENDCHAR
STARTCHAR 002E
ENCODING 46
SWIDTH 180 0
DWIDTH 10 0
BBX 6 6 2 0
BITMAP
78
FC
FC
FC
FC
78
ENDCHAR
STARTCHAR 002F
ENCODING 47
SWIDTH 396 0
DWIDTH 22 0
BBX 19 35 2 -3
BITMAP
000FE0
000FC0
001FC0
001F80
001F80
003F80
003F00
003F00
007F00
007E00
00FE00
00FC00
00FC00
01FC00
01F800
01F800
03F800
03F000
03F000
07F000
07E000
07E000
0FE000
0FC000
1FC000
1F8000
1F8000
3F8000
3F0000
3F0000
7F0000
7E0000
7E0000
FE0000
FC0000
ENDCHAR
STARTCHAR 0030
ENCODING 48
SWIDTH 468 0
DWIDTH 26 0
BBX 24 29 0 0
BITMAP
01E780
07E7E0
0FE7F0
1FE7F8
3FE7FC
3FE7FC
7FE7FE
7FC3FE
7F81FE
FF81FF
FF00FF
FF00FF
FF00FF
FF00FF
FF00FF
FF00FF
FF00FF
FF00FF
FF00FF
FF81FF
7F81FE
7FC3FE
7FE7FE
3FE7FC
3FE7FC
1FE7F8
0FE7F0
07E7E0
01E780
ENDCHAR
STARTCHAR 0031
ENCODING 49
SWIDTH 378 0
DWIDTH 21 0
BBX 17 29 1 0
BITMAP
000F00
013F80
033F80
073F80
1F3F80
3F3F80
7F3F80
FF3F80
FF3F80
7F3F80
7E3F80
383F80
003F80
003F80
003F80
003F80
003F80
003F80
003F80
003F80
003F80
003F80
003F80
003F80
003F80
003F80
003F80
003F80
000F00
ENDCHAR
STARTCHAR 0032
ENCODING 50
SWIDTH 414 0
DWIDTH 23 0
BBX 21 30 1 -1
BITMAP
03F800
0FFE00
3FFF80
7FFFC0
7FFFC0
7F1FE0
FE1FE0
FE1FE0
7E1FE0
7E3FE0
3C3FE0
007FC0
00FFC0
00FF80
01FF00
03FF00
03FE00
07FC00
0FF800
0FF800
1FF000
3FE000
3FE3E0
7FC7F0
FF8FF0
FF8FF8
FF1FF0
FE3FF0
7E3FE0
184000
ENDCHAR
STARTCHAR 0033
ENCODING 51
SWIDTH 414 0
DWIDTH 23 0
BBX 19 29 2 0
BITMAP
7C7E00
FC7F00
FC7F80
FC7FC0
FC7FE0
FC7FE0
7C7FE0
001FE0
000FE0
000FE0
001FC0
01FFC0
03FF80
03FF00
03FF00
03FF80
01FFC0
001FC0
000FE0
000FE0
000FE0
001FE0
7C7FE0
FC7FE0
FC7FC0
FC7FC0
FC7F80
FC7F80
7C7E00
ENDCHAR
STARTCHAR 0034
ENCODING 52
SWIDTH 432 0
DWIDTH 24 0
BBX 20 29 2 0
BITMAP
7803C0
FE07F0
FE07F0
FE07F0
FE07F0
FE07F0
FE07F0
FE07F0
FE07F0
FE07F0
FE07F0
FE07F0
FFE7F0
FFE7F0
FFE7F0
7FE7F0
7FE7F0
3FE7F0
0FE7F0
0007F0
0007F0
0007F0
0007F0
0007F0
0007F0
0007F0
0007F0
0007F0
0003E0
ENDCHAR
STARTCHAR 0035
ENCODING 53
SWIDTH 414 0
DWIDTH 23 0
BBX 20 29 1 0
BITMAP
1C3F80
7F3FC0
7F3FE0
7F3FE0
7F3FE0
7F3FC0
7F3F80
7F0000
7F0000
7F0000
7F0000
7F3F00
7F3F80
7F3FC0
7F3FE0
7F3FE0
7F3FF0
000FF0
0007F0
0007F0
0007F0
000FF0
7FFFF0
FFFFF0
FFFFE0
FFFFE0
FFFFC0
FFFF80
7FFE00
ENDCHAR
STARTCHAR 0036
ENCODING 54
SWIDTH 414 0
DWIDTH 23 0
BBX 23 29 1 0
BITMAP
01F3F0
07F3F0
0FF3F8
1FF3F8
3FF3F8
3FF3F0
7FF3F0
7FC000
7F8000
FF8000
FF0000
FF0000
FF0FE0
FF1FF8
FF1FFC
FF1FFC
FF0FFC
FF00FE
FF007E
7F807E
7F807E
7FC07E
3FC0FE
3FE1FC
1FFFFC
0FFFF8
07FFF0
03FFE0
007F00
ENDCHAR
STARTCHAR 0037
ENCODING 55
SWIDTH 432 0
DWIDTH 24 0
BBX 22 29 1 0
BITMAP
3FF9F0
7FF1F8
FFF3FC
FFF3FC
FFE7F8
7FE7F8
3FC7F8
000FF0
000FF0
001FE0
001FE0
001FE0
003FC0
003FC0
007F80
007F80
00FF80
00FF00
00FF00
01FE00
01FE00
03FC00
03FC00
03FC00
07F800
07F800
07F000
07F000
01E000
ENDCHAR
STARTCHAR 0038
ENCODING 56
SWIDTH 378 0
DWIDTH 21 0
BBX 19 29 1 0
BITMAP
039E00
0F9F00
1F9FC0
3F9FC0
7F1FE0
7E0FE0
7E0FE0
7E1FE0
7F1FE0
7F87E0
3FC3C0
3FE180
1FF000
0FF800
07FE00
03FF00
21FF80
70FF80
787FC0
FC3FE0
FF1FE0
FE0FE0
FE0FE0
FE0FE0
FF9FE0
7F9FC0
3F9F80
1F9F00
079C00
ENDCHAR
STARTCHAR 0039
ENCODING 57
SWIDTH 468 0
DWIDTH 26 0
BBX 23 29 1 0
BITMAP
01FC00
0FFF80
1FFFC0
3FFFE0
7FFFF0
7E0FF8
FC07F8
FC07FC
FC03FC
FC03FC
FE03FE
7FE1FE
7FF1FE
3FF1FE
1FF1FE
0FE1FE
0001FE
0001FE
0001FE
0003FE
0003FC
0007FC
1F9FFC
3F9FF8
3F9FF8
3F9FF0
3F9FE0
3F9FC0
1F9F00
ENDCHAR
STARTCHAR 003A
ENCODING 58
SWIDTH 198 0
DWIDTH 11 0
BBX 6 20 2 2
BITMAP
78
FC
FC
FC
FC
78
00
00
00
00
00
00
00
00
78
FC
FC
FC
FC
78
ENDCHAR
STARTCHAR 003B
ENCODING 59
SWIDTH 198 0
DWIDTH 11 0
BBX 6 26 2 -4
BITMAP
78
FC
FC
FC
FC
78
00
00
00
00
00
00
00
00
00
00
78
F8
FC
FC
FC
7C
7C
78
F8
E0
ENDCHAR
STARTCHAR 003C
ENCODING 60
SWIDTH 846 0
DWIDTH 47 0
BBX 19 22 12 4
BITMAP
000780
001FC0
007FC0
01FFE0
07FFE0
1FFFC0
7FFFC0
FFFF00
FFFC00
FFF000
FFC000
7F0000
7C1000
007800
01FE00
07FF00
03FF80
01FFC0
00FFC0
003FC0
001F80
000F00
ENDCHAR
STARTCHAR 003D
ENCODING 61
SWIDTH 432 0
DWIDTH 24 0
BBX 15 18 4 8
BITMAP
7FF8
FFFC
FFFE
FFFE
FFFE
FFFC
7FF8
0000
0000
0000
0000
7FF8
FFFC
FFFE
FFFE
FFFE
FFFC
7FF8
ENDCHAR
STARTCHAR 003E
ENCODING 62
SWIDTH 846 0
DWIDTH 47 0
BBX 19 23 12 4
BITMAP
380000
7C0000
FF0000
FF8000
FFE000
FFF000
7FF800
1FE000
0F8300
070F80
003FC0
007FE0
01FFE0
03FFC0
0FFFC0
3FFF00
7FFE00
FFF800
FFF000
7FC000
7F0000
3E0000
100000
ENDCHAR
STARTCHAR 003F
ENCODING 63
SWIDTH 468 0
DWIDTH 26 0
BBX 18 30 2 0
BITMAP
03F800
0FFE00
3FFF00
3FFF80
7FFF80
FFFFC0
FE3FC0
FE3FC0
FE3FC0
FE3FC0
7E3FC0
7C7FC0
007F80
00FF80
00FF00
01FF00
01FE00
01FC00
03FC00
03F800
07F800
07F000
07F000
080000
0FE000
0FE000
0FE000
0FE000
0FE000
07C000
ENDCHAR
STARTCHAR 0040
ENCODING 64
SWIDTH 666 0
DWIDTH 37 0
BBX 0 0 0 0
BITMAP
ENDCHAR
STARTCHAR 0041
ENCODING 65
SWIDTH 486 0
DWIDTH 27 0
BBX 26 29 1 0
BITMAP
003C0000
007E0000
007F0000
00FF0000
00FF0000
01FE0000
01FE4000
01FE4000
03FC6000
03FCE000
07F8F000
07F8F000
07F9F000
0FF1F800
0FF3F800
1FE3FC00
1FE3FC00
1FE1FC00
3FF1FE00
3FF9FE00
7FF8FF00
7FFCFF00
7FFC7F00
FFFC7F80
FFFE7F80
FE003FC0
FE003FC0
FE001F80
7C001F00
ENDCHAR
STARTCHAR 0042
ENCODING 66
SWIDTH 504 0
DWIDTH 28 0
BBX 22 29 3 0
BITMAP
FE3F80
FE3FE0
FE3FF0
FE3FF8
FE07F8
FE03FC
FE01FC
FE01FC
FE01FC
FE01FC
FE03FC
FE07F8
FE3FF8
FE3FF0
FE3FE0
FE3FF0
FE3FF8
FE07F8
FE03FC
FE01FC
FE01FC
FE01FC
FE01FC
FE03FC
FE07F8
FE3FF8
FE3FF0
FE3FE0
3C3FC0
ENDCHAR
STARTCHAR 0043
ENCODING 67
SWIDTH 504 0
DWIDTH 28 0
BBX 23 29 2 0
BITMAP
01F3F8
07F3FC
0FF3FE
1FF3FE
3FF3FE
3FF3FC
7FF3F8
7FC000
7F8000
FF8000
FF0000
FF0000
FF0000
FF0000
FF0000
FF0000
FF0000
FF0000
FF0000
FF8000
7F8000
7FC000
7FF3F8
3FF3FC
3FF3FE
1FF3FE
0FF3FE
07F3FC
01F3F8
ENDCHAR
STARTCHAR 0044
ENCODING 68
SWIDTH 504 0
DWIDTH 28 0
BBX 23 29 2 0
BITMAP
FE3F80
FE3FE0
FE3FF0
FE3FF0
FE3FF8
FE3FF8
FE07FC
FE03FC
FE03FC
FE03FE
FE01FE
FE01FE
FE01FE
FE01FE
FE01FE
FE01FE
FE01FE
FE01FE
FE01FE
FE03FE
FE03FC
FE03FC
FE07FC
FE3FF8
FE3FF8
FE3FF0
FE3FF0
FE3FE0
3C3F80
ENDCHAR
STARTCHAR 0045
ENCODING 69
SWIDTH 450 0
DWIDTH 25 0
BBX 19 29 3 0
BITMAP
FE3F80
FE3FC0
FE3FE0
FE3FE0
FE3FE0
FE3FC0
FE3FC0
FE0000
FE0000
FE0000
FE0000
FE3F80
FE3FC0
FE3FE0
FE3FE0
FE3FE0
FE3FC0
FE3FC0
FE0000
FE0000
FE0000
FE0000
FE3F80
FE3FC0
FE3FE0
FE3FE0
FE3FE0
FE3FC0
3C3FC0
ENDCHAR
STARTCHAR 0046
ENCODING 70
SWIDTH 450 0
DWIDTH 25 0
BBX 19 29 3 0
BITMAP
FE3F80
FE3FC0
FE3FE0
FE3FE0
FE3FE0
FE3FC0
FE3FC0
FE0000
FE0000
FE0000
FE0000
FE3F80
FE3FC0
FE3FE0
FE3FE0
FE3FE0
FE3FC0
FE3FC0
FE0000
FE0000
FE0000
FE0000
FE0000
FE0000
FE0000
FE0000
FE0000
FE0000
3C0000
ENDCHAR
STARTCHAR 0047
ENCODING 71
SWIDTH 486 0
DWIDTH 27 0
BBX 23 29 2 0
BITMAP
01F3F0
07F3F8
0FF3FC
1FF3FC
3FF3FC
3FF3F8
7FF3F8
7FC000
7F8000
FF8000
FF0000
FF0000
FF0000
FF0000
FF0FF0
FF1FF8
FF1FFC
FF1FFC
FF1FFE
FF8FFE
7F80FE
7FC0FE
7FFCFE
3FFCFE
3FFCFE
1FFCFC
0FFCFC
07FCF8
01FCF0
ENDCHAR
STARTCHAR 0048
ENCODING 72
SWIDTH 522 0
DWIDTH 29 0
BBX 23 29 3 0
BITMAP
38003C
FE00FE
FE00FE
FE00FE
FE00FE
FE00FE
FE00FE
FE00FE
FE00FE
FE00FE
FE00FE
FFF8FE
FFF8FE
FFF8FE
FFF8FE
FFF8FE
FFF8FE
FFF8FE
FE00FE
FE00FE
FE00FE
FE00FE
FE00FE
FE00FE
FE00FE
FE00FE
FE00FE
FE00FE
3C003C
ENDCHAR
STARTCHAR 0049
ENCODING 73
SWIDTH 180 0
DWIDTH 10 0
BBX 7 29 1 0
BITMAP
3C
FE
FE
FE
FE
FE
FE
FE
FE
FE
FE
FE
FE
FE
FE
FE
FE
FE
FE
FE
FE
FE
FE
FE
FE
FE
FE
FE
3C
ENDCHAR
STARTCHAR 004A
ENCODING 74
SWIDTH 252 0
DWIDTH 14 0
BBX 14 38 -3 -9
BITMAP
0078
01FC
01FC
01FC
01FC
01FC
01FC
01FC
01FC
01FC
01FC
01FC
01FC
01FC
01FC
01FC
01FC
01FC
01FC
01FC
01FC
01FC
01FC
01FC
01FC
01FC
01FC
01FC
01FC
01FC
11FC
71FC
F1F8
F1F8
F1F0
F1F0
71E0
3180
ENDCHAR
STARTCHAR 004B
ENCODING 75
SWIDTH 558 0
DWIDTH 31 0
BBX 25 29 3 0
BITMAP
1C001E00
7E003F00
7F003F80
7F007F80
7F00FF80
7F01FF80
7F03FF00
7F03FE00
7F07FC00
7F0FF800
7F1FF800
7F3FF000
7E3FE000
7C7FC000
78FF8000
71FF8000
73FF0000
67FE2000
47FC7000
8FF8F800
1FF9FC00
3FF1FE00
7FE3FF00
7FC3FF80
FF81FF80
FF00FF80
FF003F80
7E001F00
3C000E00
ENDCHAR
STARTCHAR 004C
ENCODING 76
SWIDTH 414 0
DWIDTH 23 0
BBX 19 29 2 0
BITMAP
3C0000
FE0000
FE0000
FE0000
FE0000
FE0000
FE0000
FE0000
FE0000
FE0000
FE0000
FE0000
FE0000
FE0000
FE0000
FE0000
FE0000
FE0000
FE0000
FE0000
FE0000
FE0000
FE3F80
FE3FC0
FE3FE0
FE3FE0
FE3FE0
FE3FC0
3C3FC0
ENDCHAR
STARTCHAR 004D
ENCODING 77
SWIDTH 648 0
DWIDTH 36 0
BBX 30 29 3 0
BITMAP
3C0000F0
7E0001F8
FF0003FC
FF8003FC
FFC007FC
7FC00FF8
3FE01FF0
3FF03FE0
9FF83FE4
8FFC7FC4
C7FCFF8C
E3FE3F1C
F1FF1E3C
F9FF8E7C
FCFFCCFC
FC7FC0FC
FE3FE1FC
FE1FE1FC
FE1FE1FC
FE0FC1FC
FE0781FC
FE0001FC
FE0001FC
FE0001FC
FE0001FC
FE0001FC
FE0001FC
FE0001FC
38000070
ENDCHAR
STARTCHAR 004E
ENCODING 78
SWIDTH 522 0
DWIDTH 29 0
BBX 26 29 2 0
BITMAP
1E001F00
3F003F80
7F003F80
7F803F80
7FC03F80
7FE03F80
3FF03F80
1FF03F80
8FF83F80
8FFC3F80
C7FE3F80
E3FF3F80
E1FF1F80
F0FF8F80
F8FFCF80
FC7FE780
FE3FF380
FE1FF180
FE0FF880
FE0FFC80
FE07FE00
FE03FF00
FE01FF00
FE00FF80
FE00FFC0
FE007FC0
FE003FC0
FE001F80
38000F00
ENDCHAR
STARTCHAR 004F
ENCODING 79
SWIDTH 576 0
DWIDTH 32 0
BBX 26 29 3 0
BITMAP
00F3C000
03F3F000
0FF3FC00
1FF3FE00
3FF3FF00
3FF3FF00
7FF3FF80
7FC0FF80
7F807F80
FF807FC0
FF003FC0
FF003FC0
FF003FC0
FF003FC0
FF003FC0
FF003FC0
FF003FC0
FF003FC0
FF003FC0
FF807FC0
7F807F80
7FC0FF80
7FF3FF80
3FF3FF00
3FF3FF00
1FF3FE00
0FF3FC00
03F3F000
00F3C000
ENDCHAR
STARTCHAR 0050
ENCODING 80
SWIDTH 486 0
DWIDTH 27 0
BBX 21 29 3 0
BITMAP
FE3E00
FE3F80
FE3FC0
FE3FE0
FE3FF0
FE3FF0
FE0FF8
FE07F8
FE03F8
FE03F8
FE03F8
FE03F8
FE07F8
FE0FF8
FE3FF0
FE3FF0
FE3FE0
FE3FC0
FE3F80
FE3E00
FE0000
FE0000
FE0000
FE0000
FE0000
FE0000
FE0000
FE0000
3C0000
ENDCHAR
STARTCHAR 0051
ENCODING 81
SWIDTH 576 0
DWIDTH 32 0
BBX 26 33 3 -4
BITMAP
00F3C000
03F3F000
0FF3FC00
1FF3FE00
3FF3FE00
3FF3FF00
7FF3FF80
7FC0FF80
7F807F80
FF807F80
FF003FC0
FF003FC0
FF003FC0
FF003FC0
FF003FC0
FF003FC0
FF003FC0
FF003FC0
FF003FC0
FF807FC0
7F807F80
7FC0FF80
7FF3FF80
3FF3FF00
3FF3FF00
1FF3FF00
0FF3FF00
03F3FF80
00F3FF80
00007F80
00003F80
00001F00
00000400
ENDCHAR
STARTCHAR 0052
ENCODING 82
SWIDTH 486 0
DWIDTH 27 0
BBX 22 29 3 0
BITMAP
FE3F80
FE3FE0
FE3FF0
FE3FF8
FE07F8
FE03FC
FE01FC
FE01FC
FE01FC
FE01FC
FE03FC
FE07F8
FE3FF8
FE3FF0
FE3FE0
FE3F80
FE0000
FE0000
FE0000
FE3FE0
FE1FE0
FE1FF0
FE0FF0
FE0FF8
FE07F8
FE07F8
FE03F8
FE03F0
3C01E0
ENDCHAR
STARTCHAR 0053
ENCODING 83
SWIDTH 468 0
DWIDTH 26 0
BBX 23 29 1 0
BITMAP
1E3FF8
3F0FFC
7F87FE
7FC3FE
7FE1FE
3FF1FE
3FF0FC
1FF800
0FFC00
07FE00
03FF00
01FF80
00FFC0
007FE0
003FF0
001FF0
001FF8
000FFC
3E07FC
7F03FE
7F83FE
FF83FE
FFC7FE
FFFFFE
7FFFFE
7FFFFC
3FFFFC
1FFFF8
0FFFF0
ENDCHAR
STARTCHAR 0054
ENCODING 84
SWIDTH 504 0
DWIDTH 28 0
BBX 24 29 2 0
BITMAP
7FFFFE
FFFFFF
FFFFFF
FFFFFF
FFFFFF
FFFFFF
7FFFFE
000000
000000
00FE00
00FE00
00FE00
00FE00
00FE00
00FE00
00FE00
00FE00
00FE00
00FE00
00FE00
00FE00
00FE00
00FE00
00FE00
00FE00
00FE00
00FE00
00FE00
003800
ENDCHAR
STARTCHAR 0055
ENCODING 85
SWIDTH 540 0
DWIDTH 30 0
BBX 24 29 3 0
BITMAP
78001E
FC007F
FE007F
FE007F
FE007F
FE007F
FE007F
FE007F
FE007F
FE007F
FE007F
FE007F
FE007F
FE007F
FE007F
FE007F
FE007F
FE007F
FE007F
FE007F
FF00FF
FF81FF
7FE7FE
7FE7FE
7FE7FE
3FE7FC
1FE7F8
0FE7F0
01E780
ENDCHAR
STARTCHAR 0056
ENCODING 86
SWIDTH 468 0
DWIDTH 26 0
BBX 26 29 -1 0
BITMAP
3E000F00
7E001FC0
7F001FC0
FF003FC0
7F803FC0
7F803FC0
3F807F80
3FC07F80
3FC0FF00
1FE0FF00
1FE0FF00
0FE1FE00
0FF1FE00
0FF1FC00
07F9FC00
07F8FC00
03F8F800
03FC7800
03FC7000
01FE7000
01FE3000
00FE2000
00FF2000
00FF0000
007F8000
007F8000
003F8000
003F0000
001E0000
ENDCHAR
STARTCHAR 0057
ENCODING 87
SWIDTH 882 0
DWIDTH 49 0
BBX 47 29 1 0
BITMAP
3C000F0000F8
7E001F8000FC
FE003FC001FC
FF003FC801FE
FF003F8803FC
7F807F8C03FC
7F807F9C03FC
7F80FF1C07F8
3FC0FF3E07F8
3FC0FE3E0FF0
1FE1FE3F0FF0
1FE1FE7F0FF0
1FE3FC7F1FE0
0FF3FC7F9FE0
0FF1F87F8FC0
07F9F83FCFC0
07F8F83FCFC0
07F8F03FC780
03FCF01FE780
03FC701FE300
01FE600FF300
01FE200FF100
01FE400FF200
00FF0007F800
00FF0007F800
007F0003F800
007F0003F800
007F0003F800
003E0001F000
ENDCHAR
STARTCHAR 0058
ENCODING 88
SWIDTH 540 0
DWIDTH 30 0
BBX 25 29 2 0
BITMAP
3C001E00
7E003F00
7F003F80
FF807F80
FFC0FF80
7FC1FF80
3FE3FF00
3FF1FE00
1FF9FC00
0FFCFC00
07FC7800
03FE3000
03FF2000
01FF8000
00FFC000
007FC000
023FE000
033FF000
079FF800
0F8FFC00
1FC7FC00
3FE3FE00
3FE3FF00
7FC1FF80
FF80FF80
FF807F80
FF003F80
7E003F80
3C001E00
ENDCHAR
STARTCHAR 0059
ENCODING 89
SWIDTH 522 0
DWIDTH 29 0
BBX 23 30 2 -1
BITMAP
3C0078
7E00FC
FE01FE
FF01FE
FF01FE
FF83FC
7F83FC
7FC7F8
3FC7F8
3FCFF8
1FCFF0
1FCFF0
0F9FE0
0F9FE0
073FC0
073FC0
033FC0
027F80
027F80
00FF00
00FF00
01FE00
01FE00
01FE00
03FC00
03FC00
03F800
03F800
01F000
004000
ENDCHAR
STARTCHAR 005A
ENCODING 90
SWIDTH 522 0
DWIDTH 29 0
BBX 25 30 2 -1
BITMAP
7FFF1C00
FFFE3F00
FFFE7F80
FFFC7F80
FFF8FF80
FFF1FF00
7FF3FF00
0003FE00
0007FC00
000FF800
001FF800
001FF000
003FE000
007FC000
00FFC000
00FF8000
01FF0000
03FE0000
07FE0000
07FC0000
0FF80000
1FF00000
3FF3FE00
3FE7FF00
7FC7FF00
FF8FFF00
FF9FFF00
7F3FFF00
7E3FFE00
1C400000
ENDCHAR
STARTCHAR 0061
ENCODING 97
SWIDTH 486 0
DWIDTH 27 0
BBX 26 29 1 0
BITMAP
003C0000
007E0000
007F0000
00FF0000
00FF0000
01FE0000
01FE4000
01FE4000
03FC6000
03FCE000
07F8F000
07F8F000
07F9F000
0FF1F800
0FF3F800
1FE3FC00
1FE3FC00
1FE1FC00
3FF1FE00
3FF9FE00
7FF8FF00
7FFCFF00
7FFC7F00
FFFC7F80
FFFE7F80
FE003FC0
FE003FC0
FE001F80
7C001F00
ENDCHAR
STARTCHAR 0062
ENCODING 98
SWIDTH 504 0
DWIDTH 28 0
BBX 22 29 3 0
BITMAP
FE3F80
FE3FE0
FE3FF0
FE3FF8
FE07F8
FE03FC
FE01FC
FE01FC
FE01FC
FE01FC
FE03FC
FE07F8
FE3FF8
FE3FF0
FE3FE0
FE3FF0
FE3FF8
FE07F8
FE03FC
FE01FC
FE01FC
FE01FC
FE01FC
FE03FC
FE07F8
FE3FF8
FE3FF0
FE3FE0
3C3FC0
ENDCHAR
STARTCHAR 0063
ENCODING 99
SWIDTH 504 0
DWIDTH 28 0
BBX 23 29 2 0
BITMAP
01F3F8
07F3FC
0FF3FE
1FF3FE
3FF3FE
3FF3FC
7FF3F8
7FC000
7F8000
FF0000
FE0000
FE0000
FE0000
FE0000
FE0000
FE0000
FE0000
FE0000
FE0000
FF0000
7F8000
7FC000
7FF3F8
3FF3FC
3FF3FE
1FF3FE
0FF3FE
07F3FC
01F3F8
ENDCHAR
STARTCHAR 0064
ENCODING 100
SWIDTH 504 0
DWIDTH 28 0
BBX 23 29 2 0
BITMAP
FE3F80
FE3FE0
FE3FF0
FE3FF0
FE3FF8
FE3FF8
FE07FC
FE03FC
FE01FC
FE01FE
FE00FE
FE00FE
FE00FE
FE00FE
FE00FE
FE00FE
FE00FE
FE00FE
FE00FE
FE01FE
FE01FC
FE03FC
FE07FC
FE3FF8
FE3FF8
FE3FF0
FE3FF0
FE3FE0
3C3F80
ENDCHAR
STARTCHAR 0065
ENCODING 101
SWIDTH 450 0
DWIDTH 25 0
BBX 19 29 3 0
BITMAP
FE3F80
FE3FC0
FE3FE0
FE3FE0
FE3FE0
FE3FC0
FE3FC0
FE0000
FE0000
FE0000
FE0000
FE3F80
FE3FC0
FE3FE0
FE3FE0
FE3FE0
FE3FC0
FE3FC0
FE0000
FE0000
FE0000
FE0000
FE3F80
FE3FC0
FE3FE0
FE3FE0
FE3FE0
FE3FC0
3C3FC0
ENDCHAR
STARTCHAR 0066
ENCODING 102
SWIDTH 450 0
DWIDTH 25 0
BBX 19 29 3 0
BITMAP
FE3F80
FE3FC0
FE3FE0
FE3FE0
FE3FE0
FE3FC0
FE3FC0
FE0000
FE0000
FE0000
FE0000
FE3F80
FE3FC0
FE3FE0
FE3FE0
FE3FE0
FE3FC0
FE3FC0
FE0000
FE0000
FE0000
FE0000
FE0000
FE0000
FE0000
FE0000
FE0000
FE0000
3C0000
ENDCHAR
STARTCHAR 0067
ENCODING 103
SWIDTH 486 0
DWIDTH 27 0
BBX 23 29 2 0
BITMAP
01F3F0
07F3F8
0FF3F8
1FF3F8
3FF3F8
3FF3F8
7FF3F0
7FC000
7F8000
FF0000
FE0000
FE0000
FE0000
FE0000
FE0FF0
FE1FF8
FE1FFC
FE1FFC
FE1FFE
FF0FFE
7F00FE
7F80FE
7FFCFE
3FFCFE
3FFCFE
1FFCFC
0FFCFC
07FCF8
01FCF0
ENDCHAR
STARTCHAR 0068
ENCODING 104
SWIDTH 522 0
DWIDTH 29 0
BBX 23 29 3 0
BITMAP
38003C
FE00FE
FE00FE
FE00FE
FE00FE
FE00FE
FE00FE
FE00FE
FE00FE
FE00FE
FE00FE
FFF8FE
FFF8FE
FFF8FE
FFF8FE
FFF8FE
FFF8FE
FFF8FE
FE00FE
FE00FE
FE00FE
FE00FE
FE00FE
FE00FE
FE00FE
FE00FE
FE00FE
FE00FE
3C003C
ENDCHAR
STARTCHAR 0069
ENCODING 105
SWIDTH 180 0
DWIDTH 10 0
BBX 7 29 1 0
BITMAP
3C
FE
FE
FE
FE
FE
FE
FE
FE
FE
FE
FE
FE
FE
FE
FE
FE
FE
FE
FE
FE
FE
FE
FE
FE
FE
FE
FE
3C
ENDCHAR
STARTCHAR 006A
ENCODING 106
SWIDTH 252 0
DWIDTH 14 0
BBX 14 38 -3 -9
BITMAP
0078
01FC
01FC
01FC
01FC
01FC
01FC
01FC
01FC
01FC
01FC
01FC
01FC
01FC
01FC
01FC
01FC
01FC
01FC
01FC
01FC
01FC
01FC
01FC
01FC
01FC
01FC
01FC
01FC
01FC
11FC
71FC
F1F8
F1F8
F1F0
F1F0
71E0
3180
ENDCHAR
STARTCHAR 006B
ENCODING 107
SWIDTH 558 0
DWIDTH 31 0
BBX 25 29 3 0
BITMAP
1C001E00
7E003F00
7F003F80
7F007F80
7F00FF80
7F01FF80
7F03FF00
7F03FE00
7F07FC00
7F0FF800
7F1FF800
7F3FF000
7E3FE000
7C7FC000
78FF8000
71FF8000
73FF0000
67FE2000
47FC7000
8FF8F800
1FF9FC00
3FF1FE00
7FE3FF00
7FC3FF80
FF81FF80
FF00FF80
FF003F80
7E001F00
3C000E00
ENDCHAR
STARTCHAR 006C
ENCODING 108
SWIDTH 414 0
DWIDTH 23 0
BBX 19 29 2 0
BITMAP
3C0000
FE0000
FE0000
FE0000
FE0000
FE0000
FE0000
FE0000
FE0000
FE0000
FE0000
FE0000
FE0000
FE0000
FE0000
FE0000
FE0000
FE0000
FE0000
FE0000
FE0000
FE0000
FE3F80
FE3FC0
FE3FE0
FE3FE0
FE3FE0
FE3FC0
3C3FC0
ENDCHAR
STARTCHAR 006D
ENCODING 109
SWIDTH 648 0
DWIDTH 36 0
BBX 30 29 3 0
BITMAP
3C0000F0
7E0001F8
FF0003FC
FF8003FC
FFC007FC
7FC00FF8
3FE01FF0
3FF03FE0
9FF83FE4
8FFC7FC4
C7FCFF8C
E3FE3F1C
F1FF1E3C
F9FF8E7C
FCFFCCFC
FC7FC0FC
FE3FE1FC
FE1FE1FC
FE1FE1FC
FE0FC1FC
FE0781FC
FE0001FC
FE0001FC
FE0001FC
FE0001FC
FE0001FC
FE0001FC
FE0001FC
38000070
ENDCHAR
STARTCHAR 006E
ENCODING 110
SWIDTH 522 0
DWIDTH 29 0
BBX 26 29 2 0
BITMAP
1E001F00
3F003F80
7F003F80
7F803F80
7FC03F80
7FE03F80
3FF03F80
1FF03F80
8FF83F80
8FFC3F80
C7FE3F80
E3FF3F80
E1FF1F80
F0FF8F80
F8FFCF80
FC7FE780
FE3FF380
FE1FF180
FE0FF880
FE0FFC80
FE07FE00
FE03FF00
FE01FF00
FE00FF80
FE00FFC0
FE007FC0
FE003FC0
FE001F80
38000F00
ENDCHAR
STARTCHAR 006F
ENCODING 111
SWIDTH 576 0
DWIDTH 32 0
BBX 26 29 3 0
BITMAP
00F3C000
03F3F000
0FF3FC00
1FF3FE00
3FF3FF00
3FF3FF00
7FF3FF80
7FC0FF80
7F807F80
FF003FC0
FE001FC0
FE001FC0
FE001FC0
FE001FC0
FE001FC0
FE001FC0
FE001FC0
FE001FC0
FE003FC0
FF003FC0
7F807F80
7FC0FF80
7FF3FF80
3FF3FF00
3FF3FF00
1FF3FE00
0FF3FC00
03F3F000
00F3C000
ENDCHAR
STARTCHAR 0070
ENCODING 112
SWIDTH 486 0
DWIDTH 27 0
BBX 21 29 3 0
BITMAP
FE7E00
FE7F80
FE7FC0
FE7FE0
FE7FF0
FE7FF0
FE0FF8
FE07F8
FE03F8
FE03F8
FE03F8
FE03F8
FE07F8
FE1FF0
FE7FF0
FE7FF0
FE7FE0
FE7FC0
FE7F80
FE7C00
FE0000
FE0000
FE0000
FE0000
FE0000
FE0000
FE0000
FE0000
3C0000
ENDCHAR
STARTCHAR 0071
ENCODING 113
SWIDTH 558 0
DWIDTH 31 0
BBX 25 33 3 -4
BITMAP
01E3C000
07E3F000
0FE3F800
1FE3FC00
3FE3FE00
3FE3FE00
7FE3FF00
7F80FF00
7F007F00
FF007F80
FE003F80
FE003F80
FE003F80
FE003F80
FE003F80
FE003F80
FE003F80
FE003F80
FE003F80
FF007F80
7F007F00
7F80FF00
7FE3FF00
3FE3FE00
3FE3FE00
1FE3FE00
0FE3FF00
07E3FF00
01E3FF80
00007F80
00003F00
00001E00
00000800
ENDCHAR
STARTCHAR 0072
ENCODING 114
SWIDTH 486 0
DWIDTH 27 0
BBX 22 29 3 0
BITMAP
FE3F80
FE3FE0
FE3FF0
FE3FF8
FE07F8
FE03FC
FE01FC
FE01FC
FE01FC
FE01FC
FE03FC
FE07F8
FE3FF8
FE3FF0
FE3FE0
FE3F80
FE0000
FE0000
FE0000
FE3FE0
FE1FE0
FE1FF0
FE0FF0
FE0FF8
FE07F8
FE07F8
FE03F8
FE03F0
3C01E0
ENDCHAR
STARTCHAR 0073
ENCODING 115
SWIDTH 468 0
DWIDTH 26 0
BBX 23 29 1 0
BITMAP
1E3FF8
3F0FFC
7F87FE
7FC3FE
7FE1FE
3FF1FE
3FF0FC
1FF800
0FFC00
07FE00
03FF00
01FF80
00FFC0
007FE0
003FF0
001FF0
001FF8
000FFC
3E07FC
7F03FE
7F83FE
FF83FE
FFC7FE
FFFFFE
7FFFFE
7FFFFC
3FFFFC
1FFFF8
0FFFF0
ENDCHAR
STARTCHAR 0074
ENCODING 116
SWIDTH 504 0
DWIDTH 28 0
BBX 24 29 2 0
BITMAP
7FFFFE
FFFFFF
FFFFFF
FFFFFF
FFFFFF
FFFFFF
7FFFFE
000000
000000
00FE00
00FE00
00FE00
00FE00
00FE00
00FE00
00FE00
00FE00
00FE00
00FE00
00FE00
00FE00
00FE00
00FE00
00FE00
00FE00
00FE00
00FE00
00FE00
003800
ENDCHAR
STARTCHAR 0075
ENCODING 117
SWIDTH 540 0
DWIDTH 30 0
BBX 24 29 3 0
BITMAP
78001E
FC007F
FE007F
FE007F
FE007F
FE007F
FE007F
FE007F
FE007F
FE007F
FE007F
FE007F
FE007F
FE007F
FE007F
FE007F
FE007F
FE007F
FE007F
FE007F
FF00FF
FF81FF
7FE7FE
7FE7FE
7FE7FE
3FE7FC
1FE7F8
0FE7F0
01E780
ENDCHAR
STARTCHAR 0076
ENCODING 118
SWIDTH 468 0
DWIDTH 26 0
BBX 26 29 -1 0
BITMAP
3E000F00
7E001FC0
7F001FC0
FF003FC0
7F803FC0
7F803FC0
3F807F80
3FC07F80
3FC0FF00
1FE0FF00
1FE0FF00
0FE1FE00
0FF1FE00
0FF1FC00
07F9FC00
07F8FC00
03F8F800
03FC7800
03FC7000
01FE7000
01FE3000
00FE2000
00FF2000
00FF0000
007F8000
007F8000
003F8000
003F0000
001E0000
ENDCHAR
STARTCHAR 0077
ENCODING 119
SWIDTH 882 0
DWIDTH 49 0
BBX 47 29 1 0
BITMAP
3C000F0000F8
7E001F8000FC
FE003FC001FC
FF003FC801FE
FF003F8803FC
7F807F8C03FC
7F807F9C03FC
7F80FF1C07F8
3FC0FF3E07F8
3FC0FE3E0FF0
1FE1FE3F0FF0
1FE1FE7F0FF0
1FE3FC7F1FE0
0FF3FC7F9FE0
0FF1F87F8FC0
07F9F83FCFC0
07F8F83FCFC0
07F8F03FC780
03FCF01FE780
03FC701FE300
01FE600FF300
01FE200FF100
01FE400FF200
00FF0007F800
00FF0007F800
007F0003F800
007F0003F800
007F0003F800
003E0001F000
ENDCHAR
STARTCHAR 0078
ENCODING 120
SWIDTH 540 0
DWIDTH 30 0
BBX 25 29 2 0
BITMAP
3C001E00
7E003F00
7F003F80
FF807F80
FFC0FF80
7FC1FF80
3FE3FF00
3FF1FE00
1FF9FC00
0FFCFC00
07FC7800
03FE3000
03FF2000
01FF8000
00FFC000
007FC000
023FE000
033FF000
079FF800
0F8FFC00
1FC7FC00
3FE3FE00
3FE3FF00
7FC1FF80
FF80FF80
FF807F80
FF003F80
7E003F80
3C001E00
ENDCHAR
STARTCHAR 0079
ENCODING 121
SWIDTH 522 0
DWIDTH 29 0
BBX 23 30 2 -1
BITMAP
3C0078
7E00FC
FE01FE
FF01FE
FF01FE
FF83FC
7F83FC
7FC7F8
3FC7F8
3FCFF8
1FCFF0
1FCFF0
0F9FE0
0F9FE0
073FC0
073FC0
033FC0
027F80
027F80
00FF00
00FF00
01FE00
01FE00
01FE00
03FC00
03FC00
03F800
03F800
01F000
004000
ENDCHAR
STARTCHAR 007A
ENCODING 122
SWIDTH 522 0
DWIDTH 29 0
BBX 25 30 2 -1
BITMAP
7FFF1C00
FFFE3F00
FFFE7F80
FFFC7F80
FFF8FF80
FFF1FF00
7FF3FF00
0003FE00
0007FC00
000FF800
001FF800
001FF000
003FE000
007FC000
00FFC000
00FF8000
01FF0000
03FE0000
07FE0000
07FC0000
0FF80000
1FF00000
3FF3FE00
3FE7FF00
7FC7FF00
FF8FFF00
FF9FFF00
7F3FFF00
7E3FFE00
1C400000
ENDCHAR
STARTCHAR 00A0
ENCODING 160
SWIDTH 216 0
DWIDTH 12 0
BBX 0 0 0 0
BITMAP
ENDCHAR
STARTCHAR 0106
ENCODING 262
SWIDTH 504 0
DWIDTH 28 0
BBX 23 41 2 0
BITMAP
000038
0000FC
0003FC
0007FC
000FFC
001FF8
003FE0
003F80
001C00
000000
000000
000000
01F3F8
07F3FC
0FF3FE
1FF3FE
3FF3FE
3FF3FC
7FF3F8
7FC000
7F8000
FF8000
FF0000
FF0000
FF0000
FF0000
FF0000
FF0000
FF0000
FF0000
FF0000
FF8000
7F8000
7FC000
7FF3F8
3FF3FC
3FF3FE
1FF3FE
0FF3FE
07F3FC
01F3F8
ENDCHAR
STARTCHAR 0107
ENCODING 263
SWIDTH 504 0
DWIDTH 28 0
BBX 22 41 3 0
BITMAP
000070
0001F8
0007F8
000FF8
001FF8
003FF0
007FC0
007F00
003800
000000
000000
000000
01F7F0
07F7F8
0FF7FC
1FF7FC
3FF7FC
3FF7F8
7FF7F0
7FC000
7F8000
FF0000
FE0000
FE0000
FE0000
FE0000
FE0000
FE0000
FE0000
FE0000
FE0000
FF0000
7F8000
7FC000
7FF7F0
3FF7F8
3FF7FC
1FF7FC
0FF7FC
07F7F8
01F7F0
ENDCHAR
STARTCHAR 010C
ENCODING 268
SWIDTH 468 0
DWIDTH 26 0
BBX 23 41 0 0
BITMAP
07001C
0FC07E
0FF1FE
07FFFC
03FFF8
01FFF0
00FFE0
003F80
000E00
000000
000000
000000
01F3F8
07F3FC
0FF3FE
1FF3FE
3FF3FE
3FF3FC
7FF3F8
7FC000
7F8000
FF8000
FF0000
FF0000
FF0000
FF0000
FF0000
FF0000
FF0000
FF0000
FF0000
FF8000
7F8000
7FC000
7FF3F8
3FF3FC
3FF3FE
1FF3FE
0FF3FE
07F3FC
01F3F8
ENDCHAR
STARTCHAR 010D
ENCODING 269
SWIDTH 468 0
DWIDTH 26 0
BBX 22 41 1 0
BITMAP
0E0038
1F80FC
1FE3FC
0FFFF8
07FFF0
03FFE0
01FFC0
007F00
001C00
000000
000000
000000
01F7F0
07F7F8
0FF7FC
1FF7FC
3FF7FC
3FF7F8
7FF7F0
7FC000
7F8000
FF0000
FE0000
FE0000
FE0000
FE0000
FE0000
FE0000
FE0000
FE0000
FE0000
FF0000
7F8000
7FC000
7FF7F0
3FF7F8
3FF7FC
1FF7FC
0FF7FC
07F7F8
01F7F0
ENDCHAR
STARTCHAR 0110
ENCODING 272
SWIDTH 504 0
DWIDTH 28 0
BBX 23 29 2 0
BITMAP
FE3F80
FE3FE0
FE3FF0
FE3FF0
FE3FF8
FE3FF8
FE07FC
FE03FC
FE03FC
FE03FE
FE01FE
FE01FE
FFF1FE
FFF9FE
FFF9FE
FFF9FE
FFF9FE
FFF1FE
FFE1FE
FE03FE
FE03FC
FE03FC
FE07FC
FE3FF8
FE3FF8
FE3FF0
FE3FF0
FE3FE0
383F80
ENDCHAR
STARTCHAR 0111
ENCODING 273
SWIDTH 504 0
DWIDTH 28 0
BBX 23 29 2 0
BITMAP
FE3F80
FE3FE0
FE3FF0
FE3FF0
FE3FF8
FE3FF8
FE07FC
FE03FC
FE01FC
FE01FE
FE00FE
FE00FE
FFE0FE
FFF0FE
FFF0FE
FFF0FE
FFF0FE
FFF0FE
FFE0FE
FE01FE
FE01FC
FE03FC
FE07FC
FE3FF8
FE3FF8
FE3FF0
FE3FF0
FE3FE0
383F80
ENDCHAR
STARTCHAR 0160
ENCODING 352
SWIDTH 468 0
DWIDTH 26 0
BBX 23 41 1 0
BITMAP
1C0078
3F00F8
3FC3F8
1FFFF0
0FFFE0
07FFC0
01FF80
00FE00
003800
000000
000000
000000
1E3FF8
3F0FFC
7F87FE
7FC3FE
7FE1FE
3FF1FE
3FF0FC
1FF800
0FFC00
07FE00
03FF00
01FF80
00FFC0
007FE0
003FF0
001FF0
001FF8
000FFC
3E07FC
7F03FE
7F83FE
FF83FE
FFC7FE
FFFFFE
7FFFFE
7FFFFC
3FFFFC
1FFFF8
0FFFF0
ENDCHAR
STARTCHAR 0161
ENCODING 353
SWIDTH 468 0
DWIDTH 26 0
BBX 23 41 1 0
BITMAP
1C0078
3F00F8
3FC3F8
1FFFF0
0FFFE0
07FFC0
01FF80
00FE00
003800
000000
000000
000000
1E3FF8
3F0FFC
7F87FE
7FC3FE
7FE1FE
3FF1FE
3FF0FC
1FF800
0FFC00
07FE00
03FF00
01FF80
00FFC0
007FE0
003FF0
001FF0
001FF8
000FFC
3E07FC
7F03FE
7F83FE
FF83FE
FFC7FE
FFFFFE
7FFFFE
7FFFFC
3FFFFC
1FFFF8
0FFFF0
ENDCHAR
STARTCHAR 017D
ENCODING 381
SWIDTH 522 0
DWIDTH 29 0
BBX 25 42 2 -1
BITMAP
0E001C00
0F807C00
0FE1FC00
0FFFFC00
07FFF800
03FFE000
00FFC000
007F0000
001E0000
00000000
00000000
00000000
7FFF1C00
FFFE3F00
FFFE7F80
FFFC7F80
FFF8FF80
FFF1FF00
7FF3FF00
0003FE00
0007FC00
000FF800
001FF800
001FF000
003FE000
007FC000
00FFC000
00FF8000
01FF0000
03FE0000
07FE0000
07FC0000
0FF80000
1FF00000
3FF3FE00
3FE7FF00
7FC7FF00
FF8FFF00
FF9FFF00
7F3FFF00
7E3FFE00
1C400000
ENDCHAR
STARTCHAR 017E
ENCODING 382
SWIDTH 522 0
DWIDTH 29 0
BBX 25 42 2 -1
BITMAP
0E001C00
0F807C00
0FE1FC00
0FFFFC00
07FFF800
03FFE000
00FFC000
007F0000
001E0000
00000000
00000000
00000000
7FFF1C00
FFFE3F00
FFFE7F80
FFFC7F80
FFF8FF80
FFF1FF00
7FF3FF00
0003FE00
0007FC00
000FF800
001FF800
001FF000
003FE000
007FC000
00FFC000
00FF8000
01FF0000
03FE0000
07FE0000
07FC0000
0FF80000
1FF00000
3FF3FE00
3FE7FF00
7FC7FF00
FF8FFF00
FF9FFF00
7F3FFF00
7E3FFE00
1C400000
ENDCHAR
ENDFONT
